HIERARCHY
ROOT Hips
{
	OFFSET 0.00000 0.00000 0.00000
	CHANNELS 6 Xposition Yposition Zposition Zrotation Yrotation Xrotation 
	JOINT LHipJoint
	{
		OFFSET 0 0 0
		CHANNELS 3 Zrotation Yrotation Xrotation
		JOINT LeftHip
		{
			OFFSET 1.52977 -1.71332 0.88991
			CHANNELS 3 Zrotation Yrotation Xrotation
			JOINT LeftKnee
			{
				OFFSET 2.23949 -6.15296 0.00000
				CHANNELS 3 Zrotation Yrotation Xrotation
				JOINT LeftAnkle
				{
					OFFSET 2.68396 -7.37412 0.00000
					CHANNELS 3 Zrotation Yrotation Xrotation
					JOINT LeftToe
					{
						OFFSET 0.20538 -0.56428 2.52710
						CHANNELS 3 Zrotation Yrotation Xrotation
						End Site
						{
							OFFSET 0.00000 -0.00000 1.29919
						}
					}
				}
			}
		}
	}
	JOINT RHipJoint
	{
		OFFSET 0 0 0
		CHANNELS 3 Zrotation Yrotation Xrotation
		JOINT RightHip
		{
			OFFSET -1.45689 -1.71333 0.88991
			CHANNELS 3 Zrotation Yrotation Xrotation
			JOINT RightKnee
			{
				OFFSET -2.36700 -6.50329 0.00000
				CHANNELS 3 Zrotation Yrotation Xrotation
				JOINT RightAnkle
				{
					OFFSET -2.69814 -7.41308 0.00000
					CHANNELS 3 Zrotation Yrotation Xrotation
					JOINT RightToe
					{
						OFFSET -0.18734 -0.51471 2.37479
						CHANNELS 3 Zrotation Yrotation Xrotation
						End Site
						{
							OFFSET -0.00000 -0.00000 1.22113
						}
					}
				}
			}
		}
	}
	JOINT lowerback
	{
		OFFSET 0 0 0
		CHANNELS 3 Zrotation Yrotation Xrotation
		JOINT Chest
		{
			OFFSET 0.04294 2.14638 -0.31163
			CHANNELS 3 Zrotation Yrotation Xrotation
			JOINT Chest2
			{
				OFFSET -0.00400 2.17216 0.01486
				CHANNELS 3 Zrotation Yrotation Xrotation
				JOINT lowerneck
				{
					OFFSET 0 0 0
					CHANNELS 3 Zrotation Yrotation Xrotation
					JOINT Neck
					{
						OFFSET 0.03869 1.76598 0.14916
						CHANNELS 3 Zrotation Yrotation Xrotation
						JOINT Head
						{
							OFFSET -0.00760 1.75513 -0.18948
							CHANNELS 3 Zrotation Yrotation Xrotation
							End Site
							{
								OFFSET -0.00601 1.82444 -0.08310
							}
						}
					}
				}
				JOINT LeftCollar
				{
					OFFSET 0 0 0
					CHANNELS 3 Zrotation Yrotation Xrotation
					JOINT LeftShoulder
					{
						OFFSET 3.73696 0.92058 0.01733
CHANNELS 3 Zrotation Xrotation Yrotation
						JOINT LeftElbow
						{
OFFSET 0 -5.227710 0.000000
CHANNELS 3 Zrotation Xrotation Yrotation
							JOINT LeftWrist
							{
OFFSET 0 -3.452510 0.000000
CHANNELS 3 Zrotation Xrotation Yrotation
								JOINT lhand
								{
									OFFSET 0 0 0
CHANNELS 3 Zrotation Xrotation Yrotation
									JOINT LFingers
									{
OFFSET 0 -0.552120 0.000000
CHANNELS 3 Zrotation Xrotation Yrotation
										End Site
										{
OFFSET 0 -0.445130 0.000000
										}
									}
								}
								JOINT LThumb
								{
OFFSET 0 0.000000 0.000000
CHANNELS 3 Zrotation Xrotation Yrotation
									End Site
									{
OFFSET 0 -0.451930 0.451930
									}
								}
							}
						}
					}
				}
				JOINT RightCollar
				{
					OFFSET 0 0 0
					CHANNELS 3 Zrotation Yrotation Xrotation
					JOINT RightShoulder
					{
						OFFSET -3.63819 0.83094 -0.13694
CHANNELS 3 Zrotation Xrotation Yrotation
						JOINT RightElbow
						{
OFFSET 0 -5.239800 -0.000000
CHANNELS 3 Zrotation Xrotation Yrotation
							JOINT RightWrist
							{
OFFSET 0 -3.480420 -0.000000
CHANNELS 3 Zrotation Xrotation Yrotation
								JOINT rhand
								{
									OFFSET 0 0 0
CHANNELS 3 Zrotation Xrotation Yrotation
									JOINT RFingers
									{
OFFSET 0 -0.618710 0.000000
CHANNELS 3 Zrotation Xrotation Yrotation
										End Site
										{
OFFSET 0 -0.498820 0.000000
										}
									}
								}
								JOINT RThumb
								{
OFFSET 0 0.000000 0.000000
CHANNELS 3 Zrotation Xrotation Yrotation
									End Site
									{
OFFSET 0 -0.506440 0.506440
									}
								}
							}
						}
					}
				}
			}
		}
	}
}
MOTION
Frames: 6
Frame Time: 0.008333333333333333
49.582200 16.316600 -8.717100 -7.641500 -62.220600 7.133000 0.000000 0.000000 0.000000 -17.730600 7.098800 -6.056400 1.209600 6.977200 19.647900 0.929200 -2.017100 -17.648900 0.029900 1.116200 3.068700 0.000000 0.000000 0.000000 26.665400 5.722700 -9.391600 -3.062400 -10.795400 31.593100 -1.762400 -1.462000 -25.658900 -0.412200 -4.121200 11.418000 3.020900 -0.779600 0.782200 0.211300 -1.104700 3.280300 -1.494100 -0.488000 2.880900 3.493600 0.677200 -8.094300 -0.860900 0.474000 14.106700 -0.813800 0.318500 5.601000 -0.000000 0.000000 0.000000 1.444100 -2.391400 -26.509900 13.012300 -21.305200 2.457700 19.560100 -12.774700 -12.918900 0.000000 0.000000 0.000000 -7.125000 0.000000 0.000000 -7.082900 43.548000 -0.255200 -0.000000 0.000000 0.000000 0.809000 -1.131600 21.865700 -15.461200 -24.784700 -3.417000 -18.511500 4.728700 8.969000 0.000000 0.000000 0.000000 7.125000 0.000000 -0.000000 7.311800 39.329000 1.028200
49.593778 16.311607 -8.723587 -7.512963 -62.196472 6.882989 0.000000 0.000000 0.000000 -17.785299 7.210470 -5.984990 1.206825 6.969355 19.624543 0.921860 -1.997240 -17.581608 0.023051 0.963520 2.648583 0.000000 0.000000 0.000000 26.615481 5.745986 -9.388258 -3.099897 -10.855028 31.792478 -1.768668 -1.506327 -25.720714 -0.398967 -4.055353 11.232354 2.969547 -0.781224 0.977907 0.174644 -1.100053 3.311709 -1.500079 -0.487838 2.803385 3.508204 0.678298 -7.968468 -0.849668 0.476000 14.067778 -0.812636 0.320600 5.567390 0.000000 0.000000 0.000000 1.514283 -2.230910 -26.963905 13.246915 -21.647855 2.543661 19.626224 -12.944628 -13.059426 0.000000 0.000000 0.000000 -7.125000 0.000000 0.000000 -7.051201 43.702117 -0.227051 0.000000 0.000000 0.000000 0.811554 -1.156234 21.945446 -15.427908 -24.738801 -3.402976 -18.516461 4.731282 8.963100 0.000000 0.000000 0.000000 7.125000 0.000000 0.000000 7.306663 39.323309 1.028455
49.606115 16.299143 -8.730337 -7.516248 -62.196680 6.746293 0.000000 0.000000 0.000000 -17.815413 7.481813 -6.025101 1.204750 6.963530 19.607449 0.905536 -1.667917 -17.498090 0.002081 0.272226 0.747932 0.000000 0.000000 0.000000 26.631460 5.826307 -9.402691 -3.148875 -10.932158 32.051557 -1.776640 -1.538957 -25.790072 -0.390139 -4.010600 11.106523 2.965595 -0.775546 1.150773 0.170872 -1.088963 3.374887 -1.499417 -0.482888 2.771973 3.494656 0.681062 -7.962317 -0.835352 0.478778 14.111385 -0.805847 0.322308 5.579969 0.000000 0.000000 0.000000 1.497019 -2.408793 -27.048127 13.182758 -21.554343 2.520056 19.615410 -12.920748 -12.980502 0.000000 0.000000 0.000000 -7.125000 0.000000 0.000000 -7.045342 43.618452 -0.241474 0.000000 0.000000 0.000000 0.795556 -1.238340 21.975758 -15.395254 -24.693888 -3.389339 -18.491795 4.768339 8.965079 0.000000 0.000000 0.000000 7.125000 0.000000 0.000000 7.328163 39.323463 1.031504
49.617841 16.288639 -8.736211 -7.461572 -62.174666 6.559180 0.000000 0.000000 0.000000 -17.866066 7.647620 -6.025522 1.205449 6.965534 19.613183 0.893251 -1.390956 -17.445965 0.002093 -0.289374 -0.795039 0.000000 0.000000 0.000000 26.613381 5.863655 -9.423687 -3.197354 -11.007800 32.306301 -1.786136 -1.548190 -25.861111 -0.379608 -3.957054 10.955916 2.941849 -0.777737 1.321985 0.160272 -1.087950 3.429202 -1.494850 -0.483550 2.731983 3.483850 0.683357 -7.966384 -0.821553 0.479720 14.179949 -0.799857 0.323294 5.602109 0.000000 0.000000 0.000000 1.484407 -2.491606 -27.163982 13.199819 -21.579282 2.526289 19.604156 -12.939531 -12.976971 0.000000 0.000000 0.000000 -7.125000 0.000000 0.000000 -7.054762 43.613564 -0.242620 0.000000 0.000000 0.000000 0.781139 -1.289593 22.001532 -15.370037 -24.659089 -3.378796 -18.463211 4.803441 8.993322 0.000000 0.000000 0.000000 7.125000 0.000000 0.000000 7.357252 39.350647 1.030719
49.627972 16.283626 -8.741540 -7.381402 -62.112590 6.360500 0.000000 0.000000 0.000000 -17.899950 7.593842 -5.956011 1.214055 6.989424 19.684097 0.892250 -1.306740 -17.457719 0.004591 -0.437216 -1.201301 0.000000 0.000000 0.000000 26.587915 5.859526 -9.409800 -3.229092 -11.057030 32.472503 -1.794181 -1.576320 -25.929161 -0.372435 -3.919682 10.850829 2.915826 -0.784323 1.465662 0.140132 -1.093090 3.472664 -1.499182 -0.487107 2.695885 3.487674 0.675612 -7.947341 -0.800459 0.464765 14.238058 -0.795110 0.317744 5.616746 0.000000 0.000000 0.000000 1.495193 -2.494355 -27.322983 13.275318 -21.689265 2.554158 19.619119 -12.990864 -13.055361 0.000000 0.000000 0.000000 -7.125000 0.000000 0.000000 -7.056831 43.697058 -0.228141 0.000000 0.000000 0.000000 0.780073 -1.308524 22.024753 -15.343192 -24.621953 -3.367629 -18.453982 4.799870 8.996578 0.000000 0.000000 0.000000 7.125000 0.000000 0.000000 7.365685 39.353378 1.031433
49.637120 16.280328 -8.747346 -7.287498 -62.016320 6.163667 0.000000 0.000000 0.000000 -17.925559 7.505670 -5.912065 1.227570 7.026942 19.795237 0.893489 -1.308372 -17.469541 0.005789 -0.489564 -1.345298 0.000000 0.000000 0.000000 26.571430 5.879931 -9.377286 -3.253872 -11.095151 32.601415 -1.803802 -1.646740 -26.024715 -0.370898 -3.911591 10.827974 2.878393 -0.795394 1.590613 0.118882 -1.104389 3.504346 -1.498448 -0.494031 2.657952 3.485576 0.662417 -7.926104 -0.764265 0.440915 14.300934 -0.785311 0.308582 5.632213 0.000000 0.000000 0.000000 1.508887 -2.514687 -27.436608 13.308983 -21.738283 2.566620 19.638661 -12.953088 -13.201170 0.000000 0.000000 0.000000 -7.125000 0.000000 0.000000 -7.068300 43.851581 -0.201395 0.000000 0.000000 0.000000 0.787915 -1.302298 22.033028 -15.314860 -24.582860 -3.355809 -18.458639 4.785069 8.983965 0.000000 0.000000 0.000000 7.125000 0.000000 0.000000 7.359776 39.340665 1.032880
